<svg width="48" height="48" viewBox="0 0 48 48" fill="none" xmlns="http://www.w3.org/2000/svg">
<g clip-path="url(#clip0_23_711)">
<path d="M24.7466 35.5897C24.3465 35.1097 24.0225 34.6628 23.397 33.7526C23.3558 33.6926 23.3558 33.6926 23.3145 33.6326C23.2905 33.5977 23.2905 33.5978 23.2665 33.5625C22.41 32.283 21.7155 31.0571 21.1725 29.832C20.6554 28.6508 20.3303 27.5842 20.2001 26.5526C20.0895 25.5971 20.1506 24.7751 20.4113 24.0885C20.6584 23.4067 21.1279 22.818 21.7264 22.4299C23.2223 21.4466 25.3556 21.5734 26.6723 22.7318C27.3015 23.2778 27.7148 24.1151 27.819 25.0298C27.9503 26.1994 27.7313 27.4744 27.2044 28.9069C26.3951 31.0699 25.1396 33.1455 23.253 35.6231L24.0131 36.2059L24.7466 35.5897ZM41.0464 39.0611C40.6264 40.5379 39.6124 41.8324 38.2961 42.5741C37.1363 43.2349 35.7353 43.4734 34.3976 43.2458C32.8046 42.9934 31.2386 42.1702 29.6089 40.833C28.6515 40.0493 27.7339 39.1343 26.6254 37.896L26.6681 39.1275C28.4933 36.7766 29.8091 34.7843 30.8258 32.7026C31.965 30.3626 32.6074 28.1779 32.6753 26.0077C32.7206 24.378 32.4004 22.8079 31.7059 21.4598C30.768 19.6024 29.0831 18.1399 27.0994 17.4289C25.3035 16.7756 23.301 16.713 21.4541 17.2493C19.6785 17.7611 18.0911 18.8464 17.0063 20.3171C16.0616 21.5858 15.4946 23.1626 15.3645 24.8078C15.1913 26.8631 15.6173 29.0014 16.5341 31.2653C17.619 33.8985 19.1974 36.4148 21.3431 39.1121L21.3615 37.8915C20.5778 38.8174 19.7051 39.6986 18.7519 40.5322C17.127 41.9325 15.5865 42.822 14.0036 43.1707C12.6116 43.4888 11.1458 43.3193 9.92626 42.6911C8.47314 41.9535 7.35301 40.5589 6.93264 38.9644C6.61651 37.8116 6.67014 36.534 7.06914 35.3359C7.30389 34.6346 7.54051 34.0691 8.09814 32.8252C8.12139 32.7731 8.12139 32.7731 8.14501 32.7206C8.24664 32.4934 8.31264 32.346 8.37976 32.1937C11.6089 25.023 15.0281 17.8661 18.6308 10.731C18.7073 10.5799 18.7684 10.4587 18.906 10.1865C18.9131 10.1726 18.9131 10.1726 18.9199 10.1591C19.5634 8.88375 19.8623 8.30325 20.2425 7.60462C20.7529 6.68025 21.2021 6.0795 21.7444 5.66025C22.3943 5.14275 23.2095 4.86525 24.0131 4.884C24.8726 4.87425 25.7126 5.18587 26.3625 5.742C26.9426 6.2325 27.3863 6.87975 27.9795 8.00738C28.8323 9.63863 29.5744 11.1105 30.9338 13.845C31.0553 14.0891 31.0553 14.0891 31.1768 14.3336C31.1903 14.3606 31.1903 14.3606 31.2038 14.3876C34.2499 20.5298 37.1614 26.6962 39.936 32.886C39.9735 32.9726 40.0031 33.039 40.0736 33.1999C40.0995 33.2587 40.0995 33.2588 40.1258 33.3176C40.6474 34.5 40.8611 35.037 41.0464 35.7026C41.3513 36.8089 41.3535 37.9894 41.0468 39.0592L41.0464 39.0611ZM45.9986 37.0691C45.9836 35.6891 45.6844 34.2803 45.1414 32.874C44.8725 32.1758 44.6351 31.626 44.0974 30.4264C44.0816 30.3915 44.0816 30.3915 44.0659 30.3562C43.9913 30.1894 43.9913 30.1894 43.9166 30.0232C40.6174 22.6999 37.1475 15.4395 33.5081 8.24212C33.4159 8.06137 33.3428 7.91663 33.1804 7.596C33.177 7.58963 33.177 7.58963 33.1736 7.58288C32.5781 6.4065 32.304 5.87475 31.9466 5.22113C31.2926 4.03238 30.6263 3.1035 29.8211 2.34337C28.4044 0.967875 26.4874 0.12825 24.4954 0.00225L23.6288 0C21.5363 0.103875 19.5555 0.976875 18.0986 2.42325C17.3355 3.15937 16.6958 4.06087 16.0571 5.22C15.6986 5.874 15.4039 6.44475 14.8418 7.55662C14.8084 7.62225 14.8084 7.62225 14.7754 7.68787C14.6471 7.94175 14.5913 8.05237 14.5189 8.19488C12.0968 12.9814 9.73314 17.8339 7.42576 22.7539C5.73826 26.3674 4.54651 28.9695 3.39976 31.569C2.69214 33.1811 2.29126 34.3867 2.11576 35.6674C1.74451 38.1375 2.27476 40.7434 3.58351 42.8857C4.71039 44.745 6.40089 46.2367 8.36814 47.1004C9.90114 47.7754 11.5905 48.0802 13.254 47.9805C15.3559 47.8669 17.4668 47.1289 19.4224 45.8944C21.2119 44.7757 22.821 43.3271 24.7084 41.2646L23.298 41.2631C25.0271 43.161 26.5283 44.5376 28.1753 45.6322C30.1095 46.9282 32.1836 47.7412 34.2761 47.9422C36.7088 48.201 39.2209 47.5811 41.2538 46.2079C43.0433 45.0075 44.4566 43.2379 45.2509 41.2061C45.7665 39.8914 46.0226 38.4739 45.9983 37.0628L45.9986 37.0691Z" fill="#FF7977"/>
</g>
<defs>
<clipPath id="clip0_23_711">
<rect width="48" height="48" fill="white"/>
</clipPath>
</defs>
</svg>
