<svg width="48" height="48" viewBox="0 0 48 48" fill="none" xmlns="http://www.w3.org/2000/svg">
<path d="M23.7914 4.50928C12.7837 4.50928 3.82953 13.4643 3.82953 24.4703C3.82953 35.4763 12.7837 44.4313 23.7914 44.4313C34.7991 44.4313 43.7524 35.4754 43.7524 24.4703C43.7524 13.4652 34.7974 4.50928 23.7914 4.50928ZM23.7914 43.8806C13.0909 43.8806 4.38109 35.1708 4.38109 24.4703C4.38109 13.7698 13.0909 5.06171 23.7914 5.06171C34.4919 5.06171 43.2 13.7663 43.2 24.4703C43.2 35.1743 34.4945 43.8806 23.7914 43.8806Z" fill="#18181B"/>
<path d="M12.4128 16.6342C12.4329 16.6499 12.4538 16.6674 12.473 16.6804C12.473 16.6804 12.4879 16.6674 12.4887 16.6647C12.878 16.1786 13.2681 15.6908 13.6565 15.2073C13.7987 15.0327 13.9418 14.8521 14.0832 14.674C14.1519 14.5877 14.1963 14.4845 14.2116 14.3753C14.2269 14.266 14.2128 14.1546 14.1705 14.0527C14.1207 13.9459 14.0409 13.856 13.9407 13.794C13.8406 13.7319 13.7245 13.7005 13.6067 13.7036C13.5109 13.7092 13.4176 13.7364 13.3337 13.7831C13.2499 13.8298 13.1776 13.8948 13.1223 13.9732L12.6057 14.6191C12.2566 15.0554 11.8988 15.5005 11.5479 15.9412C11.7303 16.0887 11.9145 16.2345 12.0969 16.3828C12.2025 16.4623 12.3055 16.5478 12.4128 16.6342Z" fill="#18181B"/>
<path d="M23.7914 5.41089C13.2654 5.41089 4.72842 13.9427 4.72842 24.4704C4.72842 34.9981 13.2654 43.5334 23.7914 43.5334C34.3174 43.5334 42.8553 34.9963 42.8553 24.4704C42.8553 13.9444 34.3191 5.41089 23.7914 5.41089ZM20.7124 6.5978L22.4998 6.40056L23.7914 10.1716L25.083 6.40056L26.8695 6.5978L27.0659 11.9563L25.6765 11.7591L25.543 8.18093L24.2871 11.7591H23.2931L22.0364 8.18093L21.9037 11.7591L20.5152 11.9563L20.7124 6.5978ZM8.67839 15.4254C8.53526 15.3085 8.39301 15.1924 8.24813 15.0763C8.22962 15.0634 8.21211 15.0491 8.19577 15.0336L8.27082 14.9419C8.64086 14.4777 9.01002 14.016 9.38268 13.5543C9.81381 13.0132 10.2452 12.4736 10.6769 11.9354C10.7642 11.8342 10.8428 11.7303 10.9257 11.6256C11.0726 11.444 11.265 11.3046 11.4833 11.2215C11.6545 11.1584 11.8371 11.1322 12.0192 11.1447C12.2012 11.1572 12.3785 11.2081 12.5395 11.2939C12.7005 11.3798 12.8415 11.4988 12.9532 11.6431C13.0649 11.7873 13.1449 11.9536 13.1878 12.1309C13.2411 12.3682 13.2306 12.6155 13.1572 12.8474C13.1895 12.8212 13.2201 12.7924 13.2524 12.7671C13.4555 12.6172 13.6945 12.5232 13.9453 12.4946C14.1962 12.4659 14.4502 12.5036 14.6819 12.6039C14.9136 12.7041 15.1149 12.8635 15.2658 13.0659C15.4167 13.2684 15.5117 13.5069 15.5415 13.7577C15.5629 13.9489 15.5469 14.1424 15.4944 14.3275C15.3853 14.6845 15.1322 14.9559 14.9036 15.2378C14.4608 15.7929 14.0174 16.3456 13.5735 16.896C13.2061 17.3594 12.8343 17.8193 12.466 18.2819C12.4372 18.3168 12.411 18.3508 12.3788 18.384C12.3735 18.3927 12.3421 18.3595 12.336 18.3534C12.1981 18.2426 12.0611 18.1353 11.9241 18.0244L10.3078 16.7302C9.76755 16.2973 9.22384 15.8574 8.67839 15.4254ZM23.7914 36.3866C21.4347 36.3869 19.1309 35.6884 17.1712 34.3794C15.2115 33.0704 13.684 31.2096 12.7819 29.0325C11.8798 26.8553 11.6435 24.4595 12.103 22.1481C12.5625 19.8366 13.6971 17.7134 15.3633 16.0468C17.0295 14.3802 19.1526 13.2451 21.4639 12.7851C23.7753 12.3251 26.1711 12.5608 28.3485 13.4625C30.5258 14.3642 32.3869 15.8912 33.6964 17.8506C35.0058 19.81 35.7048 22.1137 35.705 24.4704C35.7052 27.6304 34.4502 30.6611 32.216 32.8958C29.9818 35.1305 26.9514 36.3861 23.7914 36.3866ZM35.1369 18.3115L34.4526 17.1403L36.809 14.0457L33.2771 15.6663L32.2848 14.7491L35.5069 10.5146L36.5009 11.4327L34.6412 13.8763L37.6145 12.5114L38.4873 13.5953L36.5036 16.2013L39.2963 14.9193L39.9796 16.0913L35.1369 18.3115Z" fill="#18181B"/>
<path d="M12.3709 13.2313C12.398 13.1241 12.3948 13.0114 12.3616 12.9059C12.3284 12.8003 12.2666 12.7061 12.1829 12.6337C12.0993 12.5613 11.9972 12.5135 11.888 12.4958C11.7788 12.478 11.6668 12.491 11.5645 12.5332C11.3978 12.603 11.2975 12.7496 11.1875 12.8884C10.7686 13.412 10.3506 13.9313 9.93514 14.454C9.90168 14.4922 9.87022 14.5321 9.84088 14.5736L10.0966 14.7787C10.32 14.9602 10.546 15.1374 10.7686 15.3172C10.9903 15.0423 11.205 14.7665 11.4284 14.4907C11.6518 14.2149 11.8691 13.9426 12.0899 13.6686C12.199 13.5272 12.322 13.405 12.3709 13.2313Z" fill="#18181B"/>
<path d="M23.7906 12.7417V24.4703H12.0637C12.1457 21.3858 13.4075 18.4503 15.5891 16.2683C17.7708 14.0864 20.7061 12.8242 23.7906 12.7417Z" fill="url(#paint0_linear_25_845)"/>
<path d="M35.52 24.4702C35.4374 27.555 34.175 30.4906 31.993 32.6727C29.811 34.8547 26.8753 36.117 23.7906 36.1997V24.4702H35.52Z" fill="url(#paint1_linear_25_845)"/>
<defs>
<linearGradient id="paint0_linear_25_845" x1="15.5983" y1="16.2178" x2="23.8115" y2="24.6422" gradientUnits="userSpaceOnUse">
<stop stop-color="#46BEE1"/>
<stop offset="0.62" stop-color="#3394BC"/>
<stop offset="1" stop-color="#2678A3"/>
</linearGradient>
<linearGradient id="paint1_linear_25_845" x1="23.6012" y1="24.8341" x2="32.2822" y2="32.7219" gradientUnits="userSpaceOnUse">
<stop stop-color="#3091BA"/>
<stop offset="1" stop-color="#00448B"/>
</linearGradient>
</defs>
</svg>
