<svg width="48" height="48" viewBox="0 0 48 48" fill="none" xmlns="http://www.w3.org/2000/svg">
<g clip-path="url(#clip0_23_706)">
<path d="M40.8 0H7.2C3.22355 0 0 3.22355 0 7.2V40.8C0 44.7765 3.22355 48 7.2 48H40.8C44.7765 48 48 44.7765 48 40.8V7.2C48 3.22355 44.7765 0 40.8 0Z" fill="#7289DA"/>
<path d="M32.4375 36.75L30.4688 34.4062C34.3125 33.375 35.8125 30.75 35.8125 30.75C30.9375 35.3438 17.625 35.5312 12.4688 30.75C12.4688 30.75 13.7812 33.1875 17.7188 34.4062L15.5625 36.75C9 36.6562 6.46875 32.25 6.46875 32.25C6.46875 22.5 10.7812 14.7188 10.7812 14.7188C15.1875 11.625 19.2188 11.625 19.2188 11.625L19.5 12C14.0625 13.5 11.7188 15.9375 11.7188 15.9375C18.0938 11.625 31.2188 12 36.375 15.9375C36.4688 15.8438 33.2812 13.3125 28.3125 12L28.7812 11.625C28.7812 11.625 32.8125 11.625 37.2188 14.7188C37.2188 14.7188 41.5312 22.5 41.5312 32.25C41.5312 32.25 39 36.6562 32.4375 36.75Z" fill="white"/>
<path d="M18.375 29.4375C20.0836 29.4375 21.4688 27.9684 21.4688 26.1562C21.4688 24.3441 20.0836 22.875 18.375 22.875C16.6664 22.875 15.2812 24.3441 15.2812 26.1562C15.2812 27.9684 16.6664 29.4375 18.375 29.4375Z" fill="#7289DA"/>
<path d="M29.25 29.4375C30.9586 29.4375 32.3438 27.9684 32.3438 26.1562C32.3438 24.3441 30.9586 22.875 29.25 22.875C27.5414 22.875 26.1562 24.3441 26.1562 26.1562C26.1562 27.9684 27.5414 29.4375 29.25 29.4375Z" fill="#7289DA"/>
</g>
<defs>
<clipPath id="clip0_23_706">
<rect width="48" height="48" fill="white"/>
</clipPath>
</defs>
</svg>
