<svg width="48" height="48" viewBox="0 0 48 48" fill="none" xmlns="http://www.w3.org/2000/svg">
<path d="M24.3656 25.7811C24.1031 26.3061 23.8781 26.8593 23.5031 27.328C22.4813 28.5843 21.15 29.2499 19.5375 29.3436C17.7563 29.4468 16.2656 29.0905 14.7563 27.6468C14.7375 28.0124 14.7094 28.3499 14.6906 28.6874C14.6813 28.903 14.5969 28.9874 14.3719 28.978C13.7906 28.9686 13.2188 28.9593 12.6375 28.978C12.3656 28.9874 12.3469 28.8749 12.3469 28.6499C12.375 27.403 12.3938 26.1561 12.4125 24.8999C12.4125 24.7311 12.3938 24.5624 12.375 24.3843C12.375 23.7936 12.375 23.2124 12.375 22.6218C12.3844 22.3218 12.4125 22.0311 12.4125 21.7311C12.4125 19.3124 12.4219 16.8936 12.4031 14.4749C12.4031 14.1561 12.4781 14.0343 12.8156 14.053C13.2656 14.0811 13.725 14.0905 14.175 14.053C14.6344 14.0155 14.7844 14.128 14.775 14.6249C14.7375 16.1811 14.7656 17.7468 14.7656 19.3124C14.7656 19.4811 14.7656 19.6499 14.7656 19.8374C14.9813 19.8561 15.0469 19.6874 15.15 19.5936C17.2969 17.4843 22.4531 17.6061 24.1313 21.3186C24.6281 22.4155 24.7125 23.5686 24.5813 24.7499C24.5156 25.0968 24.4406 25.4436 24.3656 25.7811ZM22.1625 23.7561C22.1531 23.578 22.1438 23.3436 22.125 23.1093C22.0031 21.553 20.9063 20.3155 19.3313 19.9311C17.8031 19.5655 16.1719 20.203 15.3844 21.5061C14.8406 22.4061 14.7094 23.3999 14.8219 24.4311C15.0938 26.8686 17.2969 28.3124 19.6406 27.5905C21.225 27.103 22.1625 25.7061 22.1625 23.7561Z" fill="#0465D2"/>
<path d="M24.3656 25.7813C24.4406 25.4438 24.5156 25.0969 24.5813 24.7594C25.2938 23.3344 26.6156 22.9219 28.0406 22.6875C29.6063 22.425 31.1813 22.5094 32.7563 22.5094C33.1594 22.5094 33.2625 22.3875 33.2344 22.0031C33.15 20.9344 32.6438 20.2594 31.6031 19.9781C30.7031 19.7344 29.7844 19.7063 28.8844 20.025C28.3125 20.2219 27.8625 20.5688 27.6938 21.1781C27.6375 21.375 27.5344 21.4125 27.3656 21.4125C26.7375 21.4125 26.1188 21.4031 25.4906 21.4125C25.2188 21.4219 25.1719 21.3094 25.2188 21.075C25.3781 20.2688 25.8094 19.6406 26.4844 19.1813C27.2063 18.6844 28.0313 18.4406 28.8844 18.3375C30.2906 18.1688 31.6781 18.1688 33.0469 18.6094C33.6469 18.8063 34.1344 19.1906 34.6688 19.5C35.0063 19.9688 35.2781 20.4656 35.4844 21C35.7094 22.4438 35.5688 23.8969 35.5969 25.35C35.625 26.4563 35.6063 27.5625 35.6438 28.6781C35.6531 28.95 35.5594 28.9875 35.3344 28.9781C34.8188 28.9688 34.3031 28.9688 33.7875 28.9781C33.5531 28.9875 33.45 28.9125 33.45 28.6688C33.45 28.3406 33.4031 28.0125 33.3844 27.6938C33.2063 27.6469 33.1688 27.7875 33.0844 27.8719C32.1469 28.8375 30.975 29.2969 29.6438 29.3438C28.8 29.3719 27.9656 29.4094 27.1313 29.175C25.3313 28.6594 24.4875 27.6656 24.3656 25.7813ZM29.7938 27.8531C31.7719 27.8438 33.1031 26.6625 33.2531 24.5438C33.2813 24.1969 33.2156 24.0469 32.8125 24.0656C31.875 24.1125 30.9375 24.075 30.0094 24.1031C29.3438 24.1219 28.6688 24.2063 28.0313 24.4313C27.4219 24.6563 26.9719 25.0313 26.8969 25.725C26.8125 26.4844 27.1219 27.0563 27.7594 27.4594C28.2938 27.7781 28.8938 27.8625 29.7938 27.8531Z" fill="#F4AF05"/>
<path d="M12.3844 22.6405C12.3844 23.2311 12.3844 23.8124 12.3844 24.403C9.40314 24.403 6.42189 24.4124 3.43126 24.3936C3.00939 24.3936 2.94376 24.5249 2.99064 24.8999C3.15939 26.2967 4.36876 27.553 5.76564 27.7499C6.54376 27.8624 7.32189 27.8436 8.07189 27.5624C8.72814 27.3092 9.24376 26.9061 9.54376 26.2686C9.64689 26.053 9.76876 25.978 10.0031 25.9874C10.5844 26.0061 11.1563 26.0155 11.7375 25.9874C12.075 25.9686 12.0844 26.0999 12 26.3624C11.6531 27.5249 10.8656 28.303 9.78751 28.7624C7.80939 29.5967 5.76564 29.6155 3.75001 28.9217C2.09064 28.3499 1.07814 27.1405 0.703138 25.4155C0.412513 24.0842 0.478138 22.7717 0.946888 21.4967C1.54689 19.8749 2.77501 18.9186 4.41564 18.5061C5.74689 18.1686 7.09689 18.1405 8.44689 18.4499C10.5 18.9186 11.775 20.1842 12.2531 22.2374C12.3094 22.3686 12.3469 22.4999 12.3844 22.6405ZM6.47814 22.8467C7.33126 22.8467 8.19376 22.8467 9.04689 22.8467C10.05 22.8467 10.1063 22.7717 9.76876 21.8155C9.31876 20.5217 8.32501 19.9499 7.04064 19.828C5.20314 19.6499 3.51564 20.3717 3.04689 22.4342C2.96251 22.7905 3.05626 22.8655 3.39376 22.8561C4.42501 22.8374 5.45626 22.8467 6.47814 22.8467Z" fill="#E4343A"/>
<path d="M35.4938 21.0093C35.2875 20.4749 35.0156 19.9687 34.6781 19.5093C34.6781 19.1999 34.3969 19.003 34.35 18.6468C35.2219 18.6468 36.075 18.6468 36.9188 18.6468C37.1438 18.6468 37.1531 18.8718 37.2281 19.0124C38.4375 21.4218 39.6469 23.8311 40.8563 26.2405C40.9219 26.3624 40.9875 26.4843 41.0906 26.6905C41.5031 25.8655 41.8875 25.0968 42.2719 24.328C43.1625 22.5468 44.0531 20.7562 44.9344 18.9655C45.0563 18.7218 45.1781 18.6187 45.4594 18.628C46.1438 18.6468 46.8281 18.6374 47.4938 18.6374C47.5594 18.7968 47.4844 18.8905 47.4375 18.9843C45.1219 23.5312 42.8063 28.0686 40.5094 32.6155C40.3781 32.878 40.2281 32.9812 39.9375 32.9718C39.225 32.953 38.5031 32.9624 37.7625 32.9624C37.7344 32.7562 37.8563 32.6249 37.9313 32.4843C38.4938 31.4062 39.0656 30.328 39.6281 29.2593C39.7219 29.0905 39.7688 28.9499 39.6563 28.7437C38.325 26.2593 37.0125 23.7655 35.6813 21.2718C35.6344 21.1686 35.5594 21.0937 35.4938 21.0093Z" fill="#87B819"/>
</svg>
