<svg width="48" height="48" viewBox="0 0 48 48" fill="none" xmlns="http://www.w3.org/2000/svg">
<g clip-path="url(#clip0_23_690)">
<path d="M42.7907 0H5.2093C2.33228 0 0 2.33228 0 5.2093V42.7907C0 45.6677 2.33228 48 5.2093 48H42.7907C45.6677 48 48 45.6677 48 42.7907V5.2093C48 2.33228 45.6677 0 42.7907 0Z" fill="#3B5999"/>
<path fill-rule="evenodd" clip-rule="evenodd" d="M15.6279 19.7209H20.6512V18.7907C20.6512 17.3023 20.4651 15.4419 20.6512 13.9535C20.8372 10.4186 22.6977 8.18605 27.5349 8L32.3721 8.18605V13.3953C30.3256 13.3953 26.7907 12.6512 26.4186 15.2558V19.7209H32L31.4419 25.4884H26.4186V40H20.6512V25.4884L15.6279 25.3023V19.7209Z" fill="white"/>
<path fill-rule="evenodd" clip-rule="evenodd" d="M48 23.8139L32.3721 8.18604V13.3953C30.3256 13.3953 26.7907 12.6512 26.4186 15.2558V19.7209H32L31.4419 25.4884H26.4186V40H20.6512L28.6512 48H42.7907L48 42.7907V23.8139Z" fill="#30487C"/>
</g>
<defs>
<clipPath id="clip0_23_690">
<rect width="48" height="48" fill="white"/>
</clipPath>
</defs>
</svg>
