<svg width="54" height="54" viewBox="0 0 54 54" fill="none" xmlns="http://www.w3.org/2000/svg">
<path d="M43.2 27.396C43.2 26.28 43.092 25.128 42.912 24.048H27.324V30.42H36.252C35.892 32.472 34.704 34.272 32.94 35.424L38.268 39.564C41.4 36.648 43.2 32.4 43.2 27.396Z" fill="#4280EF"/>
<path d="M27.324 43.524C31.788 43.524 35.532 42.048 38.268 39.528L32.94 35.424C31.464 36.432 29.556 37.008 27.324 37.008C23.004 37.008 19.368 34.092 18.036 30.204L12.564 34.416C15.372 39.996 21.06 43.524 27.324 43.524Z" fill="#34A353"/>
<path d="M18.036 30.168C17.352 28.116 17.352 25.884 18.036 23.832L12.564 19.584C10.224 24.264 10.224 29.772 12.564 34.416L18.036 30.168Z" fill="#F6B704"/>
<path d="M27.324 17.028C29.664 16.992 31.968 17.892 33.66 19.512L38.376 14.76C35.388 11.952 31.428 10.44 27.324 10.476C21.06 10.476 15.372 14.004 12.564 19.584L18.036 23.832C19.368 19.908 23.004 17.028 27.324 17.028Z" fill="#E54335"/>
</svg>
