<svg width="48" height="24" viewBox="0 0 48 24" fill="none" xmlns="http://www.w3.org/2000/svg">
<path d="M8.32959 5.73206V6.58966H14.4296V5.73206H8.32959ZM15.2944 5.73206V6.58966H23.988C23.988 6.58966 23.1 5.73206 21.924 5.73206H15.2944ZM25.6932 5.73206V6.58966H30.952L30.64 5.73206H25.6932ZM34.7232 5.73206L34.4112 6.58966H39.6232V5.73206H34.7232ZM8.32959 7.40006V8.25766H14.4296V7.40006H8.32959ZM15.2944 7.40126V8.25726H24.996C24.996 8.25726 24.8828 7.59726 24.6852 7.40126H15.2944ZM25.6932 7.40126V8.25726H31.5332L31.2444 7.40126H25.6932ZM34.0988 7.40126L33.81 8.25726H39.6228V7.40126H34.0988ZM10.0828 9.06806V9.92686H12.7248V9.06806H10.0828ZM17.0476 9.06806V9.92686H19.6896V9.06806H17.0476ZM22.2596 9.06806V9.92686H24.9016C24.9016 9.92686 25.0696 9.47326 25.0696 9.06806H22.2596ZM27.4468 9.06806V9.92686H32.1268L31.8148 9.06806H27.4468ZM33.524 9.06806L33.2104 9.92686H37.9176V9.06806H33.524ZM10.0832 10.7373V11.5949H12.7252V10.7373H10.0832ZM17.048 10.7373V11.5949H23.796C23.796 11.5949 24.36 11.1549 24.54 10.7373H17.048ZM27.4468 10.7373V11.5949H30.0888V11.1173L30.2568 11.5949H35.0968L35.2768 11.1173V11.5949H37.9188V10.7373H32.9588L32.6956 11.4637L32.4316 10.7373H27.4468ZM10.0828 12.4053V13.2629H12.7248V12.4053H10.0828ZM17.0476 12.4053V13.2629H24.5396C24.3596 12.8469 23.7956 12.4053 23.7956 12.4053H17.0476ZM27.4464 12.4053V13.2629H30.0884V12.4053H27.4464ZM30.5684 12.4053L30.8884 13.2629H34.5172L34.8212 12.4053H30.5684ZM35.2756 12.4053V13.2629H37.9176V12.4053H35.2756ZM10.0836 14.0733V14.9309H12.7256V14.0733H10.0836ZM17.0484 14.0733V14.9309H19.6904V14.0733H17.0484ZM22.2604 14.0733V14.9309H25.07C25.07 14.5261 24.902 14.0733 24.902 14.0733H22.2604ZM27.4476 14.0733V14.9309H30.0896V14.0733H27.4476ZM31.1692 14.0733L31.4788 14.9309H33.9108L34.2228 14.0733H31.1692ZM35.2764 14.0733V14.9309H37.9184V14.0733H35.2764ZM8.37839 15.7413V16.6001H14.4784V15.7413H8.37839ZM15.2956 15.7413V16.6001H24.6868C24.8844 16.4033 24.9976 15.7413 24.9976 15.7413H15.2956ZM25.742 15.7413V16.6001H30.088V15.7413H25.742ZM31.77 15.7413L32.0884 16.6001H33.326L33.6248 15.7413H31.77ZM35.2764 15.7413V16.6001H39.6716V15.7413H35.2764ZM8.37839 17.4105V18.2681H14.4784V17.4105H8.37839ZM15.2956 17.4105V18.2665H21.924C23.1 18.2665 23.988 17.4105 23.988 17.4105H15.2956ZM25.742 17.4105V18.2681H30.088V17.4105H25.742ZM32.374 17.4105L32.68 18.2657L32.7328 18.2669L33.0436 17.4109L32.374 17.4105ZM35.2768 17.4105V18.2681H39.672V17.4105H35.2768Z" fill="#1F70C1"/>
</svg>
