<svg width="48" height="48" viewBox="0 0 48 48" fill="none" xmlns="http://www.w3.org/2000/svg">
<path d="M16.856 3.34009C7.556 3.34009 2.488 11.6381 2.488 17.3361C2.488 21.9241 6.888 23.9341 10.988 23.9341L10.976 23.9221C19.464 23.9221 25.344 16.2141 25.344 9.92609C25.344 5.34609 20.994 3.34009 16.856 3.34009ZM39.512 3.34009C30.212 3.34009 25.144 11.6381 25.144 17.3361C25.144 21.9241 29.544 23.9341 33.644 23.9341L33.632 23.9221C42.122 23.9201 48 16.2141 48 9.92609C48 5.34609 43.64 3.34009 39.512 3.34009ZM28.344 29.0401L33.214 32.7081C28.874 36.8481 20.966 39.7581 14.508 39.0481C11.5152 38.709 8.65704 37.6171 6.20045 35.8744C3.74387 34.1316 1.76892 31.7948 0.46 29.0821H0C0.807422 33.2593 2.97969 37.0499 6.17553 39.8584C9.37137 42.6669 13.4097 44.3341 17.656 44.5981C25.284 45.0781 32.302 42.7881 37.55 38.3381L37.542 38.3521L39.702 44.3281L42.812 29.0821L28.344 29.0401Z" fill="#18181B"/>
</svg>
