<svg width="48" height="48" viewBox="0 0 48 48" fill="none" xmlns="http://www.w3.org/2000/svg">
<path opacity="0.2" d="M3 42.75V44.25C3 45.4965 4.0035 46.5 5.25 46.5H42.75C43.9965 46.5 45 45.4965 45 44.25V42.75C45 43.9965 43.9965 45 42.75 45H5.25C4.0035 45 3 43.9965 3 42.75Z" fill="#18181B"/>
<path d="M45 5.25V42.75C45 43.9926 43.9926 45 42.75 45H5.25C4.00736 45 3 43.9926 3 42.75V5.25C3 4.00736 4.00736 3 5.25 3H42.75C43.9926 3 45 4.00736 45 5.25Z" fill="#4F4F4F"/>
<path opacity="0.1" d="M5.25 3C4.0035 3 3 4.0035 3 5.25V6.75C3 5.5035 4.0035 4.5 5.25 4.5H42.75C43.9965 4.5 45 5.5035 45 6.75V5.25C45 4.0035 43.9965 3 42.75 3H5.25Z" fill="white"/>
<path d="M27 9H33V39L27.1183 38.2105L27 9Z" fill="#D44338"/>
<path opacity="0.2" d="M15 10.5V40.5L21 39.75V10.5H15Z" fill="#18181B"/>
<path d="M15 9V39L21 38.25V9H15Z" fill="#D44338"/>
<path opacity="0.2" d="M15 10.5L27.117 39.7125L33 40.5V39L27.117 38.2125L27.006 10.5H27L27.0615 25.653L21 10.5H15Z" fill="#18181B"/>
<path d="M15 9L27.1185 38.211L33 39L21 9H15Z" fill="#FF695E"/>
</svg>
