<svg width="48" height="48" viewBox="0 0 48 48" fill="none" xmlns="http://www.w3.org/2000/svg">
<g clip-path="url(#clip0_25_837)">
<path d="M14.559 10.8672C12.196 10.8672 10.1898 11.7928 8.67259 13.3712H8.66859C8.56039 13.3668 8.45379 13.3672 8.34459 13.3672C5.25739 13.3672 2.35959 15.1342 0.946594 17.879C0.328994 19.0782 0.0997944 20.3674 0.0285944 21.6796C-0.0356056 22.8576 0.0285944 24.0522 0.0285944 25.2188V36.5234H6.36799C6.36799 36.5234 6.37239 30.9554 6.36799 26.168C6.36519 22.9456 6.34439 20.0738 6.36799 19.4844C6.47999 16.697 7.24239 14.8738 8.66479 13.3828C13.3818 13.3864 16.4352 16.601 16.6058 21.7188C16.645 22.8936 16.6566 29.1796 16.6566 29.1796V36.5236H22.9922V26.5936C22.9922 23.5922 23.0176 20.9924 22.8086 19.2032C22.2246 14.2032 19.1666 10.8672 14.559 10.8672ZM31.3396 11.4688L25.0076 11.4766V21.4062C25.0076 24.408 24.9822 27.0076 25.1914 28.7968C25.7756 33.797 28.8334 37.1328 33.441 37.1328C35.804 37.1328 37.8102 36.2072 39.3274 34.6288C39.328 34.6282 39.3306 34.6296 39.3314 34.6288C39.4398 34.6334 39.55 34.6328 39.6594 34.6328C42.7464 34.6328 45.6404 32.8658 47.0536 30.1212C47.6712 28.9218 47.9002 27.6328 47.9716 26.3204C48.0356 25.1426 47.9716 23.948 47.9716 22.7814V11.4766H41.632C41.632 11.4766 41.6276 17.0446 41.632 21.832C41.635 25.0546 41.6558 27.926 41.632 28.5156C41.52 31.3026 40.7576 33.1262 39.3354 34.6172C34.6182 34.6136 31.5648 31.399 31.3942 26.2812C31.355 25.1064 31.3396 22.1938 31.3396 18.8164V11.4688Z" fill="#18181B"/>
</g>
<defs>
<clipPath id="clip0_25_837">
<rect width="48" height="48" fill="white"/>
</clipPath>
</defs>
</svg>
