<svg width="48" height="48" viewBox="0 0 48 48" fill="none" xmlns="http://www.w3.org/2000/svg">
<path d="M14.2219 41.9438C11.3062 41.9531 8.38124 41.9625 5.46561 41.9531C4.67811 41.9531 4.17186 41.2594 4.30311 40.4531C4.79061 37.35 5.24999 34.2469 5.73749 31.1531C6.17811 28.3688 6.65624 25.5844 7.09686 22.7906C7.41561 20.775 7.69686 18.7594 8.01561 16.7438C8.48436 13.7719 8.97186 10.8 9.44999 7.82814C9.72186 6.12189 9.97499 4.41564 10.2375 2.70939C10.4062 1.59376 11.2875 0.834388 12.4312 0.834388C17.3625 0.834388 22.3031 0.796888 27.2344 0.853138C29.925 0.881263 32.5969 1.21876 35.0437 2.46564C37.5844 3.74064 39.1312 5.81251 39.6375 8.62501C39.8719 9.93751 39.7875 11.25 39.5344 12.5625C38.4844 12.0281 37.3781 11.6813 36.2344 11.4563C34.8094 11.175 33.3469 11.1 31.8937 11.0813C28.2281 11.0438 24.5531 11.0531 20.8875 11.0813C20.1094 11.0906 19.4156 11.4094 19.1062 12.2063C18.9656 12.5719 18.9187 12.9844 18.8625 13.3875C18.6094 14.925 18.3656 16.4719 18.1219 18.0188C17.9344 19.2094 17.7281 20.4 17.55 21.5906C17.325 23.1 17.1281 24.6188 16.8375 26.1188C16.7437 26.6156 16.5375 27.1219 16.6875 27.6563C16.575 27.9938 16.4719 28.3313 16.4156 28.6875C16.1531 30.4219 15.8812 32.1563 15.6094 33.8906C15.2812 35.9906 14.9719 38.1 14.6156 40.2C14.5031 40.7813 14.5406 41.4 14.2219 41.9438Z" fill="#012D8A"/>
<path d="M14.2219 41.9438C14.5406 41.4094 14.5031 40.7813 14.5969 40.2C14.9531 38.1 15.2625 36 15.5906 33.8907C15.8625 32.1563 16.1344 30.4219 16.3969 28.6875C16.4531 28.3313 16.5562 27.9938 16.6687 27.6563C17.175 26.8688 17.8781 26.5219 18.8344 26.5313C21.225 26.5313 23.6156 26.6532 25.9969 26.3532C28.125 26.0907 30.1594 25.5469 32.0531 24.5344C34.9687 22.9688 36.9562 20.5782 38.2031 17.55C38.7937 16.1063 39.2625 14.6157 39.4594 13.0594C39.4781 13.0219 39.4875 12.9844 39.5062 12.9563C39.525 12.8625 39.5437 12.7688 39.5625 12.675C41.7937 13.8563 42.9844 15.75 43.3031 18.225C43.5656 20.2594 43.2562 22.2376 42.75 24.2063C42.3469 25.7719 41.7281 27.2438 40.8469 28.5938C39.4125 30.8063 37.4156 32.3438 34.9312 33.225C33.6375 33.6844 32.3062 33.9469 30.9469 34.1063C29.8125 34.2375 28.6781 34.2375 27.5437 34.2469C26.4 34.2469 25.6687 34.875 25.5094 36C25.1625 38.3719 24.8156 40.7438 24.4031 43.1157C24.2625 43.9219 24.15 44.7375 24.0094 45.5344C23.8312 46.5094 23.1375 47.0907 22.1531 47.0907C19.7625 47.0907 17.3719 47.0907 14.9812 47.0907C14.0719 47.0907 13.6312 46.5657 13.7812 45.6844C13.9594 44.5969 14.1375 43.5188 14.3156 42.4313C14.3437 42.2532 14.3906 42.075 14.2219 41.9438Z" fill="#019AE0"/>
<path d="M39.5719 12.6562C39.5531 12.75 39.5344 12.8437 39.5156 12.9375C39.4969 12.975 39.4875 13.0125 39.4687 13.0406C39.2719 14.5968 38.8031 16.0875 38.2125 17.5312C36.9656 20.5593 34.9781 22.95 32.0625 24.5156C30.1687 25.5281 28.125 26.0718 26.0062 26.3343C23.625 26.625 21.2344 26.5125 18.8437 26.5125C17.8875 26.5125 17.1844 26.85 16.6781 27.6375C16.5281 27.1125 16.7344 26.5968 16.8281 26.1C17.1094 24.6 17.3156 23.0812 17.5406 21.5718C17.7187 20.3812 17.925 19.1906 18.1125 18C18.3562 16.4531 18.6 14.9156 18.8531 13.3687C18.9187 12.975 18.9562 12.5625 19.0969 12.1875C19.4062 11.3906 20.1 11.0625 20.8781 11.0625C24.5437 11.0343 28.2187 11.025 31.8844 11.0625C33.3375 11.0812 34.7906 11.1562 36.225 11.4375C37.3687 11.6625 38.4844 12.0093 39.525 12.5437C39.5437 12.6 39.5625 12.6281 39.5719 12.6562Z" fill="#001F6B"/>
</svg>
