<svg width="48" height="48" viewBox="0 0 48 48" fill="none" xmlns="http://www.w3.org/2000/svg">
<path fill-rule="evenodd" clip-rule="evenodd" d="M41.864 20.464V21.3718H42.2037C42.4893 21.3718 42.58 21.4139 42.58 21.5195C42.58 21.5829 42.5412 21.6569 42.4631 21.7624L41.1164 23.2003C40.9446 23.3969 40.7604 23.3765 40.6103 23.2197L39.3407 21.836C39.2757 21.7519 39.1719 21.6674 39.1719 21.5617C39.1719 21.435 39.3149 21.3718 39.6524 21.3718H39.984V20.464H35.3252V21.3718C36.4797 21.3718 36.4224 21.4774 36.8371 21.9628L39.3466 24.7387V26.1428C39.3466 26.5018 39.1648 26.6282 38.6459 26.6282H37.8414V27.5039H42.9929V26.6282H42.1884C41.6692 26.6282 41.4878 26.5018 41.4878 26.1428V24.7387L43.6182 22.4378C44.397 21.4561 44.5007 21.3718 45.0588 21.3718H45.542V20.464H41.864ZM4.38601 22.0891C4.38601 21.5299 5.42045 21.1498 6.64604 21.1498C7.59573 21.1498 8.72467 21.5487 9.2461 22.0277C9.53532 22.2933 9.8521 22.4904 9.94407 22.9968H10.9819V20.4636H9.8582C9.8611 21.045 9.63751 21.0264 9.39882 20.8718C8.53829 20.3851 7.64129 20.242 6.56954 20.242C4.0262 20.242 2.41754 21.1498 2.41754 22.5958C2.41754 23.989 3.68917 24.3793 5.43564 24.6433L6.98326 24.8968C8.80614 25.1816 9.37192 25.3084 9.37192 25.8363C9.37192 26.3637 8.79985 26.7273 7.13645 26.7441C6.0332 26.7549 4.8302 26.417 4.32479 25.9523C4.0336 25.6884 3.71682 25.5512 3.48695 24.8862H2.44482V27.5038H3.5971C3.64595 27.1357 3.75685 26.8424 4.01823 26.9932C4.85167 27.4358 6.26429 27.7255 7.19776 27.7255C9.8942 27.7255 11.3958 26.8705 11.3958 25.3402C11.3958 22.4058 4.38601 23.641 4.38601 22.0891ZM30.4258 21.3933H31.071C31.6206 21.3933 31.8123 21.5201 31.8123 21.8893L31.7903 24.7048L27.3227 20.5173H23.6369V21.3933H24.3432C24.8923 21.3933 25.0845 21.5201 25.0845 21.8893V26.1959C25.0845 26.5546 24.8923 26.6918 24.3432 26.6918H23.6369V27.5576H27.8998V26.6918H27.1855C26.6365 26.6918 26.4444 26.5546 26.4444 26.1959V22.6178L31.6472 27.545L33.2539 27.5577V21.8894C33.2539 21.5202 33.4461 21.3934 33.9956 21.3934H34.5307V20.5174H30.4259V21.3933H30.4258ZM18.0404 20.1887C14.7689 20.1887 12.7212 21.635 12.7212 23.9569C12.7212 26.2369 14.7406 27.6721 17.9407 27.6721C21.3397 27.6721 23.3169 26.2582 23.3169 23.8408C23.3169 21.6667 21.1833 20.1887 18.0404 20.1887ZM17.966 26.754C16.1552 26.754 15.1142 25.7091 15.1142 23.9042C15.1142 22.1416 16.2004 21.0965 18.0564 21.0965C19.837 21.0965 20.8779 22.1627 20.8779 23.9782C20.8779 25.7516 19.8219 26.754 17.966 26.754Z" fill="#1B1B1B"/>
</svg>
