<svg width="54" height="54" viewBox="0 0 54 54" fill="none" xmlns="http://www.w3.org/2000/svg">
<g clip-path="url(#clip0_25_935)">
<path fill-rule="evenodd" clip-rule="evenodd" d="M19.2748 43.2397L9.66091 46.2992L6.74997 47.2255L10.8394 35.1468C10.1531 33.8854 9.60952 32.5491 9.22223 31.1652C8.75242 29.486 8.51536 27.7506 8.51536 26.0071C8.51536 20.8764 10.5567 16.0123 14.1957 12.4026C17.8466 8.78109 22.7471 6.77441 27.8884 6.77441C33.0281 6.77441 37.926 8.7835 41.5737 12.4055C45.2112 16.0175 47.25 20.8827 47.25 26.0132C47.25 31.143 45.209 36.0065 41.5711 39.616C37.9216 43.237 33.0227 45.2443 27.8826 45.2443C26.2519 45.2443 24.6272 45.043 23.0472 44.6387C21.7441 44.3054 20.4794 43.8357 19.2747 43.2397L19.2748 43.2397Z" fill="#EEEEEE"/>
<path fill-rule="evenodd" clip-rule="evenodd" d="M45.7054 26.0131C45.7054 21.1274 43.7105 16.7039 40.4854 13.5014C37.2606 10.2994 32.8068 8.31885 27.8884 8.31885C22.9657 8.31885 18.5097 10.2987 15.2834 13.499C12.0557 16.7007 10.0598 21.1235 10.0598 26.0069C10.0598 27.6462 10.2866 29.237 10.7096 30.7488C11.1299 32.251 11.7449 33.6732 12.5244 34.9859L9.43657 44.1062L9.19247 44.8273L9.91775 44.5965L19.415 41.5741C20.6724 42.2508 22.0177 42.781 23.43 43.1423C24.8529 43.5063 26.3442 43.6996 27.8826 43.6996C32.8031 43.6996 37.2577 41.7197 40.4831 38.5195C43.7099 35.3179 45.7054 30.8956 45.7054 26.0131L45.7054 26.0131Z" fill="#54CC61"/>
<path fill-rule="evenodd" clip-rule="evenodd" d="M24.9901 21.1831C24.9118 21.0255 24.4602 19.9348 24.044 18.9294C23.7779 18.2867 23.5241 17.6738 23.4743 17.5552C23.0056 16.4375 22.4874 16.4712 22.09 16.497C22.0639 16.4987 22.0388 16.5004 22.0052 16.5004C21.8665 16.5004 21.7302 16.4917 21.589 16.4828C21.4124 16.4716 21.2292 16.46 21.0559 16.46C20.8257 16.46 20.512 16.5077 20.1817 16.6623C19.9368 16.777 19.6841 16.9496 19.4529 17.2037C19.4191 17.2401 19.3937 17.2668 19.3661 17.2958C18.8159 17.8742 17.6164 19.1351 17.6164 21.5565C17.6164 24.0966 19.4481 26.5122 19.7172 26.8669L19.7163 26.8676L19.7188 26.8709L19.7218 26.8739C19.7323 26.8875 19.7712 26.9444 19.8287 27.0284C20.5051 28.0178 23.615 32.5661 28.3425 34.4125C32.6314 36.0861 33.4074 35.8982 34.1006 35.7305C34.2187 35.702 34.3339 35.6741 34.4585 35.6626C35.0199 35.6098 35.9382 35.2255 36.711 34.6859C37.3521 34.2382 37.9116 33.6725 38.1259 33.0768C38.317 32.5442 38.4251 32.0494 38.4752 31.6421C38.548 31.0505 38.4904 30.585 38.3828 30.4052L38.3812 30.4036C38.2176 30.134 37.9345 30.0004 37.5098 29.7998C37.4349 29.7645 37.3549 29.7267 37.2779 29.6895L37.2782 29.689C36.9854 29.54 35.9722 29.0447 35.1062 28.6353C34.5466 28.3708 34.0494 28.1435 33.8525 28.0728C33.5755 27.9734 33.3342 27.8981 33.0754 27.9273C32.7821 27.9604 32.5262 28.1115 32.289 28.4708L32.2883 28.4703C32.1691 28.6492 31.9593 28.9176 31.7299 29.1985C31.3666 29.6436 30.9332 30.1433 30.7485 30.3531V30.3546C30.6697 30.4444 30.6017 30.4933 30.535 30.5013C30.4424 30.5125 30.3152 30.4746 30.1391 30.3881C30.0265 30.3317 29.9167 30.2843 29.7813 30.2259C29.0965 29.9304 27.7626 29.3549 26.2423 28.0089C25.6985 27.5276 25.2199 27.0014 24.8202 26.5077C24.1733 25.7087 23.7362 24.9968 23.5624 24.6969C23.4253 24.4617 23.5777 24.3093 23.7183 24.1686L23.7176 24.1678C23.8732 24.0125 24.0492 23.8009 24.2259 23.5886C24.3063 23.4919 24.3868 23.3951 24.4847 23.2824L24.4862 23.2809C24.7244 23.0038 24.8232 22.8021 24.9565 22.5298C24.9797 22.4824 25.004 22.4327 25.0285 22.3839L25.03 22.3824C25.1472 22.1462 25.1772 21.9215 25.1553 21.7109C25.1351 21.515 25.0695 21.3401 24.9895 21.1834L24.9901 21.1831Z" fill="#FFFFFE"/>
</g>
<defs>
<clipPath id="clip0_25_935">
<rect width="54" height="54" fill="white"/>
</clipPath>
</defs>
</svg>
