<svg width="54" height="54" viewBox="0 0 54 54" fill="none" xmlns="http://www.w3.org/2000/svg">
<path d="M42.892 5.26184H11.108C7.87924 5.26184 5.26184 7.87924 5.26184 11.108V42.892C5.26184 46.1208 7.87924 48.7382 11.108 48.7382H42.892C46.1208 48.7382 48.7382 46.1208 48.7382 42.892V11.108C48.7382 7.87924 46.1208 5.26184 42.892 5.26184Z" fill="#518EF7"/>
<path d="M15.7518 19.6099H28.3215C28.918 19.6099 29.5087 19.7274 30.0597 19.9557C30.6108 20.184 31.1115 20.5186 31.5332 20.9404C31.955 21.3622 32.2895 21.863 32.5176 22.4141C32.7458 22.9652 32.8632 23.5559 32.863 24.1524V32.5477C32.863 33.0364 32.6689 33.505 32.3233 33.8506C31.9778 34.1961 31.5091 34.3903 31.0205 34.3903H18.4497C17.8532 34.3903 17.2625 34.2727 16.7115 34.0445C16.1604 33.8162 15.6597 33.4815 15.238 33.0597C14.8162 32.6379 14.4817 32.1371 14.2536 31.586C14.0254 31.0349 13.908 30.4442 13.9082 29.8477V21.4524C13.9082 21.2103 13.9559 20.9707 14.0485 20.747C14.1412 20.5234 14.277 20.3203 14.4482 20.1492C14.6194 19.978 14.8227 19.8424 15.0463 19.7498C15.27 19.6573 15.5097 19.6097 15.7518 19.6099Z" fill="#FEFEFE"/>
<path d="M38.6416 34.2278L34.5516 30.723C34.3682 30.5831 34.2195 30.4028 34.1171 30.1961C34.0147 29.9894 33.9613 29.7619 33.9609 29.5312V24.8906C33.9611 24.6589 34.0149 24.4303 34.1181 24.2228C34.2213 24.0154 34.3711 23.8346 34.5558 23.6946L38.6459 19.7786C38.7853 19.6837 38.948 19.6286 39.1164 19.6192C39.2848 19.6099 39.4526 19.6466 39.6017 19.7254C39.7509 19.8043 39.8757 19.9223 39.9628 20.0667C40.0499 20.2112 40.0959 20.3766 40.0961 20.5453V33.461C40.0965 33.6304 40.0505 33.7966 39.9632 33.9417C39.8759 34.0869 39.7506 34.2053 39.6008 34.2843C39.451 34.3633 39.2824 34.3998 39.1133 34.3898C38.9443 34.3798 38.7811 34.3238 38.6416 34.2278Z" fill="#FEFEFE"/>
</svg>
